<svg xmlns="http://www.w3.org/2000/svg" viewBox="0 0 1280 360" width="100%" preserveAspectRatio="xMidYMid meet" role="img" aria-label="Featured Specimens">
  <defs>
    <filter id="grain2" x="0" y="0" width="100%" height="100%">
      <feTurbulence baseFrequency="0.9" numOctaves="2" stitchTiles="stitch" seed="7"/>
      <feColorMatrix values="0 0 0 0 0.92  0 0 0 0 0.88  0 0 0 0 0.78  0 0 0 0.03 0"/>
    </filter>
  </defs>

  <rect width="1280" height="360" fill="#0c0c0b"/>
  <rect width="1280" height="360" filter="url(#grain2)" opacity="0.7"/>
  <rect x="24" y="24" width="1232" height="312" fill="none" stroke="rgba(236,230,218,0.10)" stroke-width="1"/>

  <!-- Section header -->
  <g transform="translate(64, 64)">
    <text font-family="Georgia, 'Times New Roman', serif" font-style="italic" font-size="32" fill="#e8512a">№02</text>
    <text x="78" y="-6" font-family="ui-monospace, monospace" font-size="11" letter-spacing="1.8" fill="#6f6c64">SPECIMENS</text>
    <text x="78" y="22" font-family="Georgia, 'Times New Roman', serif" font-size="32" fill="#ece6da">Featured work<tspan fill="#e8512a">.</tspan></text>
  </g>

  <line x1="64" y1="140" x2="1216" y2="140" stroke="rgba(236,230,218,0.10)" stroke-width="1"/>

  <!-- 4 SIGILS -->
  <!-- 01 · AUTOCRAWL · network -->
  <g transform="translate(120, 180)" fill="none" stroke="#b8b3a8" stroke-width="1.4" stroke-linecap="round" stroke-linejoin="round">
    <circle cx="40" cy="40" r="3.5" fill="#b8b3a8" stroke="none"/>
    <circle cx="14" cy="20" r="2.2"/>
    <circle cx="66" cy="18" r="2.2"/>
    <circle cx="14" cy="60" r="2.2"/>
    <circle cx="68" cy="58" r="2.2"/>
    <circle cx="40" cy="12" r="2.2"/>
    <circle cx="40" cy="70" r="2.2"/>
    <circle cx="22" cy="40" r="2.2"/>
    <circle cx="58" cy="40" r="2.2"/>
    <line x1="40" y1="40" x2="14" y2="20"/>
    <line x1="40" y1="40" x2="66" y2="18"/>
    <line x1="40" y1="40" x2="14" y2="60"/>
    <line x1="40" y1="40" x2="68" y2="58"/>
    <line x1="40" y1="40" x2="40" y2="12"/>
    <line x1="40" y1="40" x2="40" y2="70"/>
    <line x1="40" y1="40" x2="22" y2="40"/>
    <line x1="40" y1="40" x2="58" y2="40"/>
  </g>
  <g transform="translate(120, 290)">
    <text font-family="Georgia, 'Times New Roman', serif" font-size="22" fill="#ece6da">Autocrawl<tspan fill="#e8512a">.</tspan></text>
    <text y="20" font-family="ui-monospace, monospace" font-size="9" letter-spacing="1.4" fill="#6f6c64">929 VENDORS / 1 NIGHT</text>
  </g>

  <!-- 02 · ATLAS · waveform -->
  <g transform="translate(400, 180)" fill="none" stroke="#b8b3a8" stroke-width="1.4" stroke-linecap="round" stroke-linejoin="round">
    <circle cx="40" cy="40" r="26"/>
    <path d="M14 40 Q22 28 28 40 T42 40 T56 40 T66 40"/>
    <path d="M14 50 Q22 38 28 50 T42 50 T56 50 T66 50" opacity="0.5"/>
    <line x1="14" y1="40" x2="66" y2="40" opacity="0.25"/>
  </g>
  <g transform="translate(400, 290)">
    <text font-family="Georgia, 'Times New Roman', serif" font-size="22" fill="#ece6da">Atlas<tspan fill="#e8512a">.</tspan></text>
    <text y="20" font-family="ui-monospace, monospace" font-size="9" letter-spacing="1.4" fill="#6f6c64">LOCAL VOICE AI · CUDA</text>
  </g>

  <!-- 03 · GEOCEK · crosshair -->
  <g transform="translate(680, 180)" fill="none" stroke="#b8b3a8" stroke-width="1.4" stroke-linecap="round" stroke-linejoin="round">
    <circle cx="40" cy="40" r="24"/>
    <circle cx="40" cy="40" r="14"/>
    <line x1="40" y1="6" x2="40" y2="20"/>
    <line x1="40" y1="60" x2="40" y2="74"/>
    <line x1="6" y1="40" x2="20" y2="40"/>
    <line x1="60" y1="40" x2="74" y2="40"/>
    <circle cx="40" cy="40" r="2.5" fill="#b8b3a8" stroke="none"/>
  </g>
  <g transform="translate(680, 290)">
    <text font-family="Georgia, 'Times New Roman', serif" font-size="22" fill="#ece6da">Geocek<tspan fill="#e8512a">.</tspan></text>
    <text y="20" font-family="ui-monospace, monospace" font-size="9" letter-spacing="1.4" fill="#6f6c64">OSINT · NO GPS NEEDED</text>
  </g>

  <!-- 04 · YOTA · doc + waveform -->
  <g transform="translate(960, 180)" fill="none" stroke="#b8b3a8" stroke-width="1.4" stroke-linecap="round" stroke-linejoin="round">
    <path d="M22 12 H50 L60 22 V68 H22 Z"/>
    <line x1="50" y1="12" x2="50" y2="22"/>
    <line x1="50" y1="22" x2="60" y2="22"/>
    <line x1="28" y1="34" x2="32" y2="34"/>
    <line x1="34" y1="30" x2="34" y2="38"/>
    <line x1="38" y1="26" x2="38" y2="42"/>
    <line x1="42" y1="32" x2="42" y2="36"/>
    <line x1="44" y1="34" x2="48" y2="34"/>
    <line x1="28" y1="50" x2="54" y2="50" opacity="0.6"/>
    <line x1="28" y1="56" x2="48" y2="56" opacity="0.4"/>
  </g>
  <g transform="translate(960, 290)">
    <text font-family="Georgia, 'Times New Roman', serif" font-size="22" fill="#ece6da">YOTA<tspan fill="#e8512a">.</tspan></text>
    <text y="20" font-family="ui-monospace, monospace" font-size="9" letter-spacing="1.4" fill="#6f6c64">MEETING AI · MULTI-AGENT</text>
  </g>
</svg>
